<?xml version="1.0" encoding="utf-8"?>
<!-- Generator: Adobe Illustrator 24.1.3, SVG Export Plug-In . SVG Version: 6.00 Build 0)  -->
<svg version="1.1" id="Layer_1" xmlns="http://www.w3.org/2000/svg" xmlns:xlink="http://www.w3.org/1999/xlink" x="0px" y="0px"
	 viewBox="0 0 40 40" style="enable-background:new 0 0 40 40;" xml:space="preserve">
<style type="text/css">
	.st0{fill-rule:evenodd;clip-rule:evenodd;fill:#A5E3E0;}
</style>
<desc>Created with Sketch.</desc>
<g id="bluebird_connected">
	<path id="Humidity--Copy" class="st0" d="M21.3,5.8c0.2,0.1,0.3,0.3,0.4,0.4c3.9,5.3,6.6,9.8,7.9,13.4c0.6,1.4,1,3,1,4.7
		c0,6-4.7,10.9-10.5,10.9S9.6,30.3,9.6,24.3c0-1.7,0.4-3.2,1-4.7c1.3-3.5,3.8-7.8,7.5-12.9l0.3-0.5C19.1,5.4,20.4,5.2,21.3,5.8z
		 M12.6,25.9c-0.8,0-1.4,0.7-1.4,1.5s0.6,1.5,1.4,1.5s1.4-0.7,1.4-1.5S13.4,25.9,12.6,25.9z M27.3,25.9c-0.8,0-1.4,0.7-1.4,1.5
		s0.6,1.5,1.4,1.5s1.4-0.7,1.4-1.5S28.1,25.9,27.3,25.9z M14.3,16.8c-0.8,0-1.4,0.7-1.4,1.5s0.6,1.5,1.4,1.5c0.8,0,1.4-0.7,1.4-1.5
		S15.1,16.8,14.3,16.8z M25.7,16.8c-0.8,0-1.4,0.7-1.4,1.5s0.6,1.5,1.4,1.5c0.8,0,1.4-0.7,1.4-1.5S26.5,16.8,25.7,16.8z"/>
</g>
</svg>
